<?xml version="1.0" encoding="utf-8"?>
<!-- Generator: Adobe Illustrator 18.0.0, SVG Export Plug-In . SVG Version: 6.00 Build 0)  -->
<!DOCTYPE svg PUBLIC "-//W3C//DTD SVG 1.1//EN" "http://www.w3.org/Graphics/SVG/1.1/DTD/svg11.dtd">
<svg version="1.1" id="Layer_1" xmlns="http://www.w3.org/2000/svg" xmlns:xlink="http://www.w3.org/1999/xlink" x="0px" y="0px"
	 width="22px" height="22px" viewBox="0 0 22 22" enable-background="new 0 0 22 22" xml:space="preserve">
<g>
	<path fill="#D5000D" d="M20.6,19.2v1.4c0,0.8-0.6,1.4-1.4,1.4H2.8c-0.8,0-1.4-0.6-1.4-1.4v-1.4c0-0.8,0.6-1.4,1.4-1.4h16.5
		C20,17.9,20.6,18.5,20.6,19.2z M3.3,9.5c-0.7-0.6-0.7-1.6,0-2.2C3.7,7,4.2,6.9,4.6,6.9h3.6V2.8C8.3,1.2,9.5,0,11,0
		c1.5,0,2.7,1.2,2.7,2.8v4.1h3.6c0.5,0,1,0.2,1.3,0.5c0.7,0.6,0.7,1.6,0,2.2L12.3,16c-0.7,0.6-1.9,0.6-2.7,0L3.3,9.5z"/>
</g>
</svg>
